# xmcd
#
# Track frame offsets:
#	150
#	13362
#	23982
#	32702
#	43665
#	54700
#	67715
#	81065
#	96695
#	109717
#	120982
#	132245
#	144420
#	161310
#	173477
#	186062
#
# Disc length: 2679 seconds
#
# Revision: 0
# Processed by: cddbd v1.5.2PL0 Copyright (c) Steve Scherf et al.
# Submitted via: EasyCDDAExtractor 16.0.8.2
#
DISCID=ce0a7510
DTITLE=Αν σ' αρνηθώ αγάπη μου-Τ. Βάνου 2
DYEAR=1998
DGENRE=Ελαφρολαϊκή
TTITLE0=Βάνου Τζένη-Βογιατζής Γιάννης - Το αμαξάκι
TTITLE1=Βάνου Τζένη-Βογιατζής Γιάννης - Άνοιξε, άνοιξε
TTITLE2=Βάνου Τζένη-Βογιατζής Γιάννης - Δυό πουλιά
TTITLE3=Βάνου Τζένη-Βογιατζής Γιάννης - Της Κυριακής το βράδυ
TTITLE4=Βάνου Τζένη-Βογιατζής Γιάννης - Είναι ο έρωτας μπελάς
TTITLE5=Βάνου Τζένη - Καινούρια τώρα ζωή
TTITLE6=Βάνου Τζένη-Βογιατζής Γιάννης - Θέλω κοντά σου να μείνω
TTITLE7=Βάνου Τζένη-Βογιατζής Γιάννης - Όλα μας τα όνειρα
TTITLE8=Βάνου Τζένη-Βογιατζής Γιάννης - Αθήνα μου ξενύχτισσα
TTITLE9=Βάνου Τζένη-Βογιατζής Γιάννης - Το λατερνάκι
TTITLE10=Βάνου Τζένη-Βογιατζής Γιάννης - Η κλειδωνιά
TTITLE11=Βάνου Τζένη - Ένα σου δάκρυ
TTITLE12=Βάνου Τζένη - Στου φεγγαριού το φως
TTITLE13=Βάνου Τζένη - Κανένα φως στη γειτονιά
TTITLE14=Βάνου Τζένη - Έχω μιά φλόγα στην καρδιά
TTITLE15=Βάνου Τζένη - Η σκλάβα
EXTD=
EXTT0=
EXTT1=
EXTT2=
EXTT3=
EXTT4=
EXTT5=
EXTT6=
EXTT7=
EXTT8=
EXTT9=
EXTT10=
EXTT11=
EXTT12=
EXTT13=
EXTT14=
EXTT15=
PLAYORDER=
